<?xml version="1.0" standalone="no"?>
<!DOCTYPE svg PUBLIC "-//W3C//DTD SVG 20010904//EN"
 "http://www.w3.org/TR/2001/REC-SVG-20010904/DTD/svg10.dtd">
<svg version="1.0" xmlns="http://www.w3.org/2000/svg"
 width="513.000000pt" height="513.000000pt" viewBox="0 0 513.000000 513.000000"
 preserveAspectRatio="xMidYMid meet">
<metadata>
Created by potrace 1.14, written by Peter Selinger 2001-2017
</metadata>
<g transform="translate(0.000000,513.000000) scale(0.100000,-0.100000)"
fill="#000000" stroke="none">
<path d="M3505 4842 c-174 -21 -508 -129 -820 -265 -44 -19 -165 -72 -270
-117 -104 -45 -203 -88 -220 -96 -16 -7 -230 -99 -475 -204 -713 -306 -891
-395 -1098 -549 -190 -141 -406 -405 -511 -626 -112 -234 -131 -422 -71 -697
49 -225 133 -472 273 -798 372 -870 663 -1183 1107 -1195 176 -4 292 15 540
89 135 40 583 219 819 327 24 11 64 29 90 39 25 10 64 26 86 36 22 10 42 18
45 19 3 0 27 11 54 23 27 12 50 22 52 22 2 0 26 10 52 21 58 27 117 52 307
134 61 26 143 63 183 81 41 19 75 34 78 34 6 0 127 57 269 126 242 117 414
219 522 311 177 149 394 399 500 575 170 283 141 655 -99 1268 -27 69 -53 134
-58 145 -5 11 -39 88 -76 170 -133 300 -269 553 -392 725 -70 98 -226 249
-307 296 -141 82 -276 116 -445 112 -58 -1 -118 -4 -135 -6z"/>
</g>
</svg>
